<?xml version="1.0" encoding="UTF-8" standalone="no"?>
<!DOCTYPE svg PUBLIC "-//W3C//DTD SVG 1.1//EN" "http://www.w3.org/Graphics/SVG/1.1/DTD/svg11.dtd">
<svg width="100%" height="100%" viewBox="0 0 512 512" version="1.1" xmlns="http://www.w3.org/2000/svg" xmlns:xlink="http://www.w3.org/1999/xlink" xml:space="preserve" xmlns:serif="http://www.serif.com/" style="fill-rule:evenodd;clip-rule:evenodd;stroke-linecap:round;stroke-linejoin:round;stroke-miterlimit:1.5;">
    <path d="M512,128L512,384C512,454.645 454.645,512 384,512L128,512C57.355,512 0,454.645 0,384L0,128C0,57.355 57.355,0 128,0L384,0C454.645,0 512,57.355 512,128Z"/>
    <path d="M512,128L512,384C512,454.645 454.645,512 384,512L128,512C57.355,512 -0,454.645 -0,384L-0,128C-0,57.355 57.355,-0 128,-0L384,-0C454.645,-0 512,57.355 512,128ZM503,128C503,62.322 449.678,9 384,9L128,9C62.322,9 9,62.322 9,128L9,384C9,449.678 62.322,503 128,503L384,503C449.678,503 503,449.678 503,384L503,128Z"/>
    <g transform="matrix(1.1934,0,0,1.1934,15.8772,-90.7154)">
        <g>
            <g transform="matrix(1,0,0,1,108.794,405.447)">
                <text x="0px" y="0px" style="font-family:'ArialRoundedMTBold', 'Arial Rounded MT Bold', sans-serif;font-size:56.897px;fill:white;">T</text>
            </g>
            <g transform="matrix(1,0,0,1,140.771,405.447)">
                <text x="0px" y="0px" style="font-family:'ArialRoundedMTBold', 'Arial Rounded MT Bold', sans-serif;font-size:56.897px;fill:white;">ogg<tspan x="105.487px 120.905px " y="0px 0px ">le</tspan></text>
            </g>
        </g>
        <g>
            <g transform="matrix(1,0,0,1,61.718,462.344)">
                <text x="0px" y="0px" style="font-family:'ArialRoundedMTBold', 'Arial Rounded MT Bold', sans-serif;font-size:56.897px;fill:white;">Gr</text>
            </g>
            <g transform="matrix(1,0,0,1,130.283,462.344)">
                <text x="0px" y="0px" style="font-family:'ArialRoundedMTBold', 'Arial Rounded MT Bold', sans-serif;font-size:56.897px;fill:white;">ey<tspan x="64.648px 95.486px " y="0px 0px ">sc</tspan>ale</text>
            </g>
        </g>
    </g>
    <g transform="matrix(1.03895,0,0,1.1555,20.7292,-187.059)">
        <g>
            <path d="M256,185.964L254.036,298.94L227.399,352.312L84.364,351.808L84.43,185.964L256,185.964Z" style="fill:url(#_Linear1);"/>
            <g transform="matrix(0.668353,0,0,0.557735,-77.3229,76.6251)">
                <rect x="241.917" y="196.04" width="256.804" height="298.255" style="fill:none;stroke:black;stroke-width:22.65px;"/>
            </g>
            <g transform="matrix(0.874184,0,0,0.944771,144.745,103.869)">
                <path d="M256,185.964L256,351.808L84.364,351.808L86.003,186.516L256,185.964Z" style="fill:url(#_Linear2);"/>
            </g>
            <g transform="matrix(0.584266,0,0,0.525337,77.1511,176.575)">
                <rect x="241.917" y="196.04" width="256.804" height="298.255" style="fill:none;stroke:black;stroke-width:25px;"/>
            </g>
            <g transform="matrix(0.789156,0.583318,-0.620169,0.678305,231.814,-13.8883)">
                <path d="M181.523,297.593L181.523,322.18L145.363,284.353L181.523,246.527L181.523,271.114L271.307,271.114L271.307,246.527L307.467,284.353L271.307,322.18L271.307,297.593L181.523,297.593Z" style="fill:white;stroke:black;stroke-width:12.86px;"/>
            </g>
        </g>
    </g>
    <defs>
        <linearGradient id="_Linear1" x1="0" y1="0" x2="1" y2="0" gradientUnits="userSpaceOnUse" gradientTransform="matrix(171.636,0,0,171.636,84.3638,268.886)"><stop offset="0" style="stop-color:rgb(235,235,235);stop-opacity:1"/><stop offset="1" style="stop-color:rgb(6,6,6);stop-opacity:1"/></linearGradient>
        <linearGradient id="_Linear2" x1="0" y1="0" x2="1" y2="0" gradientUnits="userSpaceOnUse" gradientTransform="matrix(171.636,0,0,171.636,84.3638,268.886)"><stop offset="0" style="stop-color:rgb(255,0,1);stop-opacity:1"/><stop offset="0.34" style="stop-color:rgb(255,234,0);stop-opacity:1"/><stop offset="0.53" style="stop-color:rgb(79,248,27);stop-opacity:1"/><stop offset="0.67" style="stop-color:rgb(0,255,39);stop-opacity:1"/><stop offset="1" style="stop-color:rgb(0,28,255);stop-opacity:1"/></linearGradient>
    </defs>
</svg>
