<?xml version="1.0" encoding="UTF-8" standalone="no"?>
<!DOCTYPE svg PUBLIC "-//W3C//DTD SVG 1.1//EN" "http://www.w3.org/Graphics/SVG/1.1/DTD/svg11.dtd">
<svg width="100%" height="100%" viewBox="0 0 512 512" version="1.1" xmlns="http://www.w3.org/2000/svg" xmlns:xlink="http://www.w3.org/1999/xlink" xml:space="preserve" xmlns:serif="http://www.serif.com/" style="fill-rule:evenodd;clip-rule:evenodd;stroke-linejoin:round;stroke-miterlimit:2;">
    <g>
        <path d="M512,128L512,384C512,454.645 454.645,512 384,512L128,512C57.355,512 0,454.645 0,384L0,128C0,57.355 57.355,0 128,0L384,0C454.645,0 512,57.355 512,128Z" style="fill:rgb(235,235,235);"/>
        <path d="M512,128L512,384C512,454.645 454.645,512 384,512L128,512C57.355,512 -0,454.645 -0,384L-0,128C-0,57.355 57.355,-0 128,-0L384,-0C454.645,-0 512,57.355 512,128ZM503,128C503,62.322 449.678,9 384,9L128,9C62.322,9 9,62.322 9,128L9,384C9,449.678 62.322,503 128,503L384,503C449.678,503 503,449.678 503,384L503,128Z"/>
        <g transform="matrix(-1.19021,0,0,1.07578,403.584,-67.3556)">
            <path d="M126.283,319.489L200.712,125.682L228.342,125.682L307.663,319.489L278.446,319.489L255.84,260.792L174.8,260.792L153.516,319.489L126.283,319.489ZM182.204,239.904L247.908,239.904L227.681,186.23C221.512,169.926 216.929,156.529 213.932,146.041C211.464,158.468 207.983,170.807 203.488,183.058L182.204,239.904ZM145.64,257.69L138.277,274.111L93.457,273.8L76.889,319.489L55.691,319.489L113.626,168.633L135.132,168.633L155.873,230.14L148.133,252.131L134.618,215.763C129.816,203.072 126.248,192.644 123.916,184.48C121.995,194.153 119.285,203.758 115.787,213.293L99.219,257.542L145.64,257.69Z"/>
        </g>
        <g transform="matrix(0.818372,0,0,0.79347,238.672,21.3103)">
            <g>
                <rect x="141.75" y="212.803" width="127.971" height="22.21"/>
            </g>
        </g>
        <g transform="matrix(1.1934,0,0,1.1934,17.2365,-98.0707)">
            <text x="68.302px" y="405.447px" style="font-family:'ArialRoundedMTBold', 'Arial Rounded MT Bold', sans-serif;font-size:56.897px;">Decr<tspan x="201.543px 235.353px " y="405.447px 405.447px ">ea</tspan>se</text>
            <g transform="matrix(56.8967,0,0,56.8967,323.615,462.344)">
            </g>
            <text x="78.498px" y="462.344px" style="font-family:'ArialRoundedMTBold', 'Arial Rounded MT Bold', sans-serif;font-size:56.897px;">T<tspan x="110.475px 143.535px 173.178px " y="462.344px 462.344px 462.344px ">ext</tspan> Siz<tspan x="289.805px " y="462.344px ">e</tspan></text>
        </g>
    </g>
</svg>
