<?xml version="1.0" encoding="UTF-8" standalone="no"?>
<!DOCTYPE svg PUBLIC "-//W3C//DTD SVG 1.1//EN" "http://www.w3.org/Graphics/SVG/1.1/DTD/svg11.dtd">
<svg width="100%" height="100%" viewBox="0 0 512 512" version="1.1" xmlns="http://www.w3.org/2000/svg" xmlns:xlink="http://www.w3.org/1999/xlink" xml:space="preserve" xmlns:serif="http://www.serif.com/" style="fill-rule:evenodd;clip-rule:evenodd;stroke-linejoin:round;stroke-miterlimit:2;">
    <g>
        <path d="M512,128L512,384C512,454.645 454.645,512 384,512L128,512C57.355,512 0,454.645 0,384L0,128C0,57.355 57.355,0 128,0L384,0C454.645,0 512,57.355 512,128Z"/>
        <path d="M512,128L512,384C512,454.645 454.645,512 384,512L128,512C57.355,512 -0,454.645 -0,384L-0,128C-0,57.355 57.355,-0 128,-0L384,-0C454.645,-0 512,57.355 512,128ZM503,128C503,62.322 449.678,9 384,9L128,9C62.322,9 9,62.322 9,128L9,384C9,449.678 62.322,503 128,503L384,503C449.678,503 503,449.678 503,384L503,128Z"/>
        <g transform="matrix(2.19841,0,0,2.19841,278.615,350)">
            <path d="M36.875,-17.867L16.214,-17.867L12.593,-9.445C11.701,-7.372 11.255,-5.824 11.255,-4.801C11.255,-3.988 11.642,-3.273 12.416,-2.656C13.19,-2.04 14.863,-1.64 17.434,-1.456L17.434,0L0.63,0L0.63,-1.456C2.86,-1.85 4.303,-2.361 4.959,-2.991C6.297,-4.25 7.779,-6.808 9.406,-10.665L28.178,-54.585L29.555,-54.585L48.131,-10.193C49.626,-6.625 50.984,-4.309 52.204,-3.247C53.424,-2.184 55.123,-1.587 57.3,-1.456L57.3,0L36.245,0L36.245,-1.456C38.371,-1.561 39.807,-1.915 40.555,-2.519C41.303,-3.122 41.676,-3.857 41.676,-4.723C41.676,-5.877 41.152,-7.7 40.102,-10.193L36.875,-17.867ZM35.773,-20.779L26.722,-42.345L17.434,-20.779L35.773,-20.779Z" style="fill:white;"/>
        </g>
        <g transform="matrix(77.7936,0,0,77.7936,-498.551,-19265.4)">
            <path d="M11.546,248.439L11.446,248.676L10.759,248.957C10.779,248.969 10.799,248.981 10.817,248.994C10.836,249.007 10.855,249.02 10.873,249.033C10.947,249.097 11.021,249.164 11.095,249.234C11.17,249.304 11.246,249.378 11.324,249.455C11.439,249.556 11.505,249.653 11.522,249.745C11.522,249.763 11.506,249.81 11.475,249.885C11.471,249.896 11.416,249.901 11.311,249.901L10.203,249.901C10.163,249.901 10.13,249.899 10.105,249.894C10.079,249.89 10.059,249.881 10.045,249.869C10.031,249.857 10.021,249.841 10.016,249.821C10.011,249.801 10.008,249.775 10.008,249.745C10.008,249.67 10.035,249.587 10.09,249.495C10.138,249.418 10.168,249.379 10.179,249.379L10.182,249.379L10.174,249.4C10.171,249.41 10.168,249.423 10.164,249.438C10.16,249.452 10.156,249.468 10.153,249.485C10.149,249.502 10.146,249.518 10.144,249.535C10.141,249.551 10.14,249.566 10.14,249.579C10.14,249.669 10.17,249.715 10.228,249.715C10.28,249.715 10.344,249.714 10.421,249.714C10.499,249.713 10.59,249.713 10.695,249.713L11.16,249.712C11.264,249.712 11.318,249.706 11.324,249.695L11.324,249.693C11.324,249.67 11.245,249.584 11.088,249.433C10.932,249.281 10.843,249.205 10.819,249.205C10.816,249.211 10.811,249.233 10.802,249.271C10.79,249.261 10.773,249.246 10.751,249.226C10.729,249.207 10.707,249.185 10.685,249.162C10.664,249.139 10.645,249.115 10.629,249.09C10.613,249.065 10.604,249.042 10.604,249.02C10.604,248.97 10.628,248.909 10.676,248.838C10.702,248.798 10.992,248.665 11.546,248.439ZM11.338,248.404L10.596,248.736L10.57,248.683L11.313,248.351L11.338,248.404Z" style="fill:white;fill-rule:nonzero;"/>
            <path d="M11.719,250.223C11.768,250.214 11.803,250.18 11.823,250.119C11.833,250.087 11.839,250.057 11.839,250.027C11.839,250.022 11.838,250.017 11.838,250.013C11.838,250.009 11.837,250.005 11.835,250L11.719,250L11.719,249.767L11.947,249.767L11.947,249.983C11.947,250.068 11.93,250.142 11.896,250.206C11.862,250.27 11.803,250.309 11.719,250.324L11.719,250.223Z" style="fill:white;fill-rule:nonzero;"/>
        </g>
        <g transform="matrix(370.965,0,0,370.965,-3629.68,-92558.3)">
            <path d="M10.372,249.841L10.088,249.841L10.088,250.046L10.121,250.046L10.121,250.025L10.339,250.025L10.339,250.046L10.372,250.046L10.372,249.841ZM10.121,249.995L10.121,249.948L10.339,249.948L10.339,249.995L10.121,249.995ZM10.121,249.919L10.121,249.871L10.339,249.871L10.339,249.919L10.121,249.919ZM10.049,249.67L10.049,249.701L10.12,249.701C10.129,249.723 10.138,249.747 10.145,249.774L10.027,249.774L10.027,249.805L10.431,249.805L10.431,249.774L10.309,249.774C10.321,249.751 10.331,249.726 10.337,249.701L10.41,249.701L10.41,249.67L10.248,249.67C10.242,249.652 10.235,249.636 10.228,249.622L10.193,249.627C10.201,249.64 10.208,249.655 10.215,249.67L10.049,249.67ZM10.155,249.701L10.304,249.701C10.299,249.726 10.29,249.751 10.277,249.774L10.178,249.774C10.171,249.747 10.163,249.723 10.155,249.701Z" style="fill:white;fill-rule:nonzero;"/>
        </g>
        <g transform="matrix(5.95622,0,0,5.95622,41.6253,-1137.9)">
            <path d="M24.955,247.816L28.751,247.816C29.259,247.816 29.731,247.761 30.167,247.651C30.602,247.541 30.981,247.357 31.303,247.099C31.624,246.841 31.876,246.502 32.058,246.083C32.24,245.665 32.331,245.142 32.331,244.516C32.331,243.898 32.236,243.377 32.045,242.954C31.855,242.531 31.582,242.19 31.227,241.932C30.871,241.674 30.439,241.49 29.932,241.38C29.424,241.27 28.848,241.215 28.205,241.215L24.955,241.215L24.955,247.816ZM24.955,231.338L24.955,239.031L28.459,239.031C29.576,239.031 30.545,239.158 31.366,239.412C32.187,239.666 32.864,240.03 33.397,240.504C33.931,240.978 34.328,241.553 34.591,242.23C34.853,242.908 34.984,243.669 34.984,244.516C34.984,245.345 34.853,246.096 34.591,246.769C34.328,247.442 33.945,248.017 33.442,248.496C32.938,248.974 32.32,249.344 31.588,249.606C30.856,249.869 30.021,250 29.081,250L22.454,250L22.454,233.521L16.754,233.521C16.754,234.969 16.737,236.391 16.703,237.787C16.669,239.184 16.597,240.506 16.487,241.754C16.377,243.003 16.212,244.152 15.992,245.201C15.772,246.251 15.472,247.158 15.091,247.924C14.71,248.69 14.238,249.287 13.675,249.714C13.112,250.142 12.429,250.355 11.625,250.355C11.38,250.355 11.174,250.334 11.009,250.292C10.844,250.25 10.664,250.203 10.47,250.152L10.47,247.842C10.563,247.884 10.679,247.92 10.819,247.95C10.958,247.979 11.16,247.994 11.422,247.994C11.811,247.994 12.148,247.852 12.431,247.569C12.715,247.285 12.958,246.89 13.161,246.382C13.364,245.874 13.531,245.271 13.663,244.573C13.794,243.875 13.9,243.115 13.98,242.294C14.06,241.473 14.12,240.605 14.158,239.691C14.196,238.777 14.225,237.848 14.247,236.905C14.268,235.961 14.28,235.017 14.285,234.074C14.289,233.13 14.299,232.218 14.316,231.338L24.955,231.338Z" style="fill:white;fill-rule:nonzero;"/>
        </g>
        <g transform="matrix(3.02229,0,0,3.02229,59.0864,-295.573)">
            <path d="M24.117,234.499L20.004,234.499L20.004,248.02C20.004,248.798 19.83,249.376 19.483,249.752C19.136,250.129 18.688,250.317 18.138,250.317C17.579,250.317 17.124,250.127 16.773,249.746C16.422,249.365 16.246,248.79 16.246,248.02L16.246,234.499L12.133,234.499C11.49,234.499 11.011,234.357 10.698,234.074C10.385,233.79 10.229,233.416 10.229,232.95C10.229,232.468 10.391,232.087 10.717,231.808C11.043,231.528 11.515,231.389 12.133,231.389L24.117,231.389C24.769,231.389 25.253,231.533 25.571,231.82C25.888,232.108 26.047,232.485 26.047,232.95C26.047,233.416 25.886,233.79 25.564,234.074C25.243,234.357 24.76,234.499 24.117,234.499Z" style="fill:white;fill-rule:nonzero;"/>
            <path d="M30.49,245.315L30.49,248.21C30.49,248.912 30.325,249.439 29.995,249.791C29.665,250.142 29.246,250.317 28.738,250.317C28.239,250.317 27.828,250.14 27.507,249.784C27.185,249.429 27.024,248.904 27.024,248.21L27.024,238.562C27.024,237.004 27.587,236.226 28.713,236.226C29.288,236.226 29.703,236.408 29.957,236.771C30.211,237.135 30.351,237.673 30.376,238.384C30.791,237.673 31.216,237.135 31.652,236.771C32.088,236.408 32.67,236.226 33.397,236.226C34.125,236.226 34.832,236.408 35.518,236.771C36.203,237.135 36.546,237.618 36.546,238.219C36.546,238.642 36.4,238.991 36.108,239.266C35.816,239.541 35.501,239.679 35.162,239.679C35.035,239.679 34.728,239.6 34.242,239.444C33.755,239.287 33.326,239.209 32.953,239.209C32.445,239.209 32.031,239.342 31.709,239.609C31.387,239.875 31.138,240.271 30.96,240.796C30.782,241.321 30.66,241.945 30.592,242.668C30.524,243.392 30.49,244.274 30.49,245.315Z" style="fill:white;fill-rule:nonzero;"/>
            <path d="M46.55,248.362C45.712,249.014 44.902,249.503 44.119,249.829C43.336,250.154 42.458,250.317 41.484,250.317C40.596,250.317 39.815,250.142 39.142,249.791C38.469,249.439 37.951,248.963 37.587,248.362C37.223,247.761 37.041,247.11 37.041,246.407C37.041,245.459 37.341,244.651 37.942,243.982C38.543,243.314 39.368,242.865 40.418,242.637C40.638,242.586 41.184,242.472 42.056,242.294C42.927,242.116 43.674,241.953 44.296,241.805C44.918,241.657 45.593,241.477 46.321,241.266C46.279,240.352 46.095,239.681 45.769,239.253C45.443,238.826 44.768,238.612 43.744,238.612C42.864,238.612 42.202,238.735 41.757,238.98C41.313,239.226 40.932,239.594 40.615,240.085C40.297,240.576 40.073,240.9 39.942,241.056C39.811,241.213 39.529,241.291 39.098,241.291C38.708,241.291 38.372,241.166 38.088,240.917C37.805,240.667 37.663,240.347 37.663,239.958C37.663,239.349 37.879,238.756 38.311,238.181C38.742,237.605 39.415,237.131 40.329,236.759C41.243,236.386 42.382,236.2 43.744,236.2C45.268,236.2 46.465,236.38 47.337,236.74C48.209,237.099 48.824,237.669 49.184,238.447C49.544,239.226 49.724,240.258 49.724,241.545C49.724,242.357 49.722,243.047 49.717,243.614C49.713,244.181 49.707,244.812 49.698,245.506C49.698,246.158 49.806,246.837 50.022,247.543C50.238,248.25 50.346,248.705 50.346,248.908C50.346,249.264 50.179,249.587 49.844,249.879C49.51,250.171 49.131,250.317 48.708,250.317C48.353,250.317 48.001,250.15 47.654,249.816C47.307,249.482 46.939,248.997 46.55,248.362ZM46.321,243.348C45.813,243.534 45.075,243.731 44.106,243.938C43.137,244.145 42.466,244.298 42.094,244.395C41.721,244.492 41.366,244.683 41.027,244.966C40.689,245.25 40.52,245.646 40.52,246.153C40.52,246.678 40.718,247.125 41.116,247.493C41.514,247.861 42.035,248.045 42.678,248.045C43.363,248.045 43.996,247.895 44.576,247.594C45.155,247.294 45.581,246.907 45.852,246.433C46.165,245.908 46.321,245.045 46.321,243.843L46.321,243.348Z" style="fill:white;fill-rule:nonzero;"/>
            <path d="M56.389,238.143L56.389,238.562C56.998,237.757 57.665,237.167 58.388,236.791C59.112,236.414 59.943,236.226 60.883,236.226C61.797,236.226 62.614,236.424 63.333,236.822C64.052,237.22 64.59,237.783 64.945,238.511C65.174,238.934 65.322,239.391 65.39,239.882C65.457,240.373 65.491,240.999 65.491,241.761L65.491,248.21C65.491,248.904 65.333,249.429 65.015,249.784C64.698,250.14 64.285,250.317 63.777,250.317C63.261,250.317 62.842,250.135 62.521,249.771C62.199,249.408 62.038,248.887 62.038,248.21L62.038,242.434C62.038,241.291 61.879,240.417 61.562,239.812C61.245,239.207 60.612,238.904 59.664,238.904C59.046,238.904 58.483,239.088 57.976,239.457C57.468,239.825 57.095,240.33 56.858,240.974C56.689,241.49 56.604,242.455 56.604,243.868L56.604,248.21C56.604,248.912 56.442,249.439 56.116,249.791C55.79,250.142 55.369,250.317 54.853,250.317C54.353,250.317 53.943,250.135 53.621,249.771C53.299,249.408 53.139,248.887 53.139,248.21L53.139,238.193C53.139,237.533 53.283,237.04 53.57,236.714C53.858,236.389 54.252,236.226 54.751,236.226C55.056,236.226 55.331,236.298 55.576,236.441C55.822,236.585 56.018,236.801 56.167,237.089C56.315,237.377 56.389,237.728 56.389,238.143Z" style="fill:white;fill-rule:nonzero;"/>
            <path d="M80.104,245.785C80.104,246.742 79.871,247.56 79.405,248.242C78.94,248.923 78.252,249.439 77.342,249.791C76.432,250.142 75.326,250.317 74.022,250.317C72.778,250.317 71.712,250.127 70.823,249.746C69.935,249.365 69.279,248.889 68.855,248.318C68.432,247.747 68.221,247.173 68.221,246.598C68.221,246.217 68.356,245.891 68.627,245.62C68.898,245.349 69.241,245.214 69.655,245.214C70.019,245.214 70.299,245.303 70.493,245.48C70.688,245.658 70.874,245.908 71.052,246.229C71.407,246.847 71.833,247.309 72.328,247.613C72.823,247.918 73.498,248.07 74.353,248.07C75.047,248.07 75.616,247.916 76.06,247.607C76.504,247.298 76.727,246.945 76.727,246.547C76.727,245.938 76.496,245.493 76.035,245.214C75.573,244.935 74.814,244.668 73.756,244.414C72.563,244.118 71.591,243.807 70.842,243.481C70.093,243.155 69.494,242.726 69.046,242.192C68.597,241.659 68.373,241.003 68.373,240.225C68.373,239.531 68.58,238.875 68.995,238.257C69.41,237.639 70.021,237.146 70.83,236.778C71.638,236.41 72.613,236.226 73.756,236.226C74.653,236.226 75.459,236.319 76.174,236.505C76.889,236.691 77.486,236.941 77.964,237.254C78.443,237.567 78.806,237.914 79.056,238.295C79.306,238.676 79.431,239.048 79.431,239.412C79.431,239.81 79.297,240.136 79.031,240.39C78.764,240.644 78.385,240.771 77.895,240.771C77.539,240.771 77.236,240.669 76.987,240.466C76.737,240.263 76.451,239.958 76.13,239.552C75.868,239.213 75.559,238.942 75.203,238.739C74.848,238.536 74.365,238.435 73.756,238.435C73.13,238.435 72.609,238.568 72.194,238.834C71.78,239.101 71.572,239.433 71.572,239.831C71.572,240.195 71.725,240.493 72.029,240.726C72.334,240.959 72.744,241.151 73.261,241.304C73.777,241.456 74.488,241.642 75.394,241.862C76.468,242.125 77.347,242.438 78.028,242.802C78.709,243.166 79.225,243.595 79.577,244.09C79.928,244.585 80.104,245.15 80.104,245.785Z" style="fill:white;fill-rule:nonzero;"/>
            <path d="M83.036,248.21L83.036,233.179C83.036,232.485 83.191,231.96 83.5,231.604C83.808,231.249 84.225,231.071 84.75,231.071C85.275,231.071 85.698,231.247 86.02,231.598C86.341,231.949 86.502,232.476 86.502,233.179L86.502,248.21C86.502,248.912 86.339,249.439 86.013,249.791C85.687,250.142 85.266,250.317 84.75,250.317C84.242,250.317 83.83,250.135 83.512,249.771C83.195,249.408 83.036,248.887 83.036,248.21Z" style="fill:white;fill-rule:nonzero;"/>
            <path d="M98.842,248.362C98.004,249.014 97.194,249.503 96.411,249.829C95.628,250.154 94.75,250.317 93.776,250.317C92.888,250.317 92.107,250.142 91.434,249.791C90.761,249.439 90.243,248.963 89.879,248.362C89.515,247.761 89.333,247.11 89.333,246.407C89.333,245.459 89.633,244.651 90.234,243.982C90.835,243.314 91.66,242.865 92.71,242.637C92.93,242.586 93.476,242.472 94.348,242.294C95.219,242.116 95.966,241.953 96.588,241.805C97.21,241.657 97.885,241.477 98.613,241.266C98.571,240.352 98.387,239.681 98.061,239.253C97.735,238.826 97.06,238.612 96.036,238.612C95.156,238.612 94.494,238.735 94.049,238.98C93.605,239.226 93.224,239.594 92.907,240.085C92.589,240.576 92.365,240.9 92.234,241.056C92.103,241.213 91.821,241.291 91.39,241.291C91,241.291 90.664,241.166 90.38,240.917C90.097,240.667 89.955,240.347 89.955,239.958C89.955,239.349 90.171,238.756 90.603,238.181C91.034,237.605 91.707,237.131 92.621,236.759C93.535,236.386 94.674,236.2 96.036,236.2C97.56,236.2 98.757,236.38 99.629,236.74C100.501,237.099 101.116,237.669 101.476,238.447C101.836,239.226 102.016,240.258 102.016,241.545C102.016,242.357 102.014,243.047 102.009,243.614C102.005,244.181 101.999,244.812 101.99,245.506C101.99,246.158 102.098,246.837 102.314,247.543C102.53,248.25 102.638,248.705 102.638,248.908C102.638,249.264 102.471,249.587 102.136,249.879C101.802,250.171 101.423,250.317 101,250.317C100.645,250.317 100.293,250.15 99.946,249.816C99.599,249.482 99.231,248.997 98.842,248.362ZM98.613,243.348C98.105,243.534 97.367,243.731 96.398,243.938C95.429,244.145 94.758,244.298 94.386,244.395C94.013,244.492 93.658,244.683 93.319,244.966C92.981,245.25 92.812,245.646 92.812,246.153C92.812,246.678 93.01,247.125 93.408,247.493C93.806,247.861 94.326,248.045 94.97,248.045C95.655,248.045 96.288,247.895 96.868,247.594C97.447,247.294 97.873,246.907 98.144,246.433C98.457,245.908 98.613,245.045 98.613,243.843L98.613,243.348Z" style="fill:white;fill-rule:nonzero;"/>
            <path d="M105.075,236.53L105.456,236.53L105.456,234.448C105.456,233.89 105.471,233.452 105.5,233.134C105.53,232.817 105.613,232.544 105.748,232.315C105.883,232.078 106.078,231.886 106.332,231.738C106.586,231.59 106.869,231.516 107.183,231.516C107.623,231.516 108.021,231.681 108.376,232.011C108.613,232.231 108.763,232.5 108.827,232.817C108.89,233.134 108.922,233.585 108.922,234.169L108.922,236.53L110.191,236.53C110.682,236.53 111.057,236.647 111.315,236.879C111.573,237.112 111.702,237.41 111.702,237.774C111.702,238.24 111.518,238.566 111.15,238.752C110.782,238.938 110.255,239.031 109.569,239.031L108.922,239.031L108.922,245.404C108.922,245.946 108.941,246.363 108.979,246.655C109.017,246.947 109.119,247.184 109.284,247.366C109.449,247.548 109.717,247.639 110.09,247.639C110.293,247.639 110.568,247.603 110.915,247.531C111.262,247.459 111.533,247.423 111.728,247.423C112.007,247.423 112.259,247.535 112.483,247.759C112.707,247.984 112.819,248.261 112.819,248.591C112.819,249.149 112.515,249.577 111.905,249.873C111.296,250.169 110.42,250.317 109.277,250.317C108.194,250.317 107.373,250.135 106.814,249.771C106.256,249.408 105.89,248.904 105.716,248.261C105.543,247.618 105.456,246.758 105.456,245.684L105.456,239.031L104.999,239.031C104.5,239.031 104.119,238.913 103.856,238.676C103.594,238.439 103.463,238.138 103.463,237.774C103.463,237.41 103.6,237.112 103.875,236.879C104.151,236.647 104.55,236.53 105.075,236.53Z" style="fill:white;fill-rule:nonzero;"/>
            <path d="M123.763,244.122L116.983,244.122C116.992,244.909 117.151,245.603 117.459,246.204C117.768,246.805 118.179,247.258 118.691,247.563C119.203,247.867 119.768,248.02 120.386,248.02C120.8,248.02 121.179,247.971 121.522,247.874C121.865,247.776 122.197,247.624 122.519,247.417C122.84,247.209 123.136,246.987 123.407,246.75C123.678,246.513 124.029,246.191 124.461,245.785C124.639,245.633 124.893,245.557 125.223,245.557C125.578,245.557 125.866,245.654 126.086,245.849C126.306,246.043 126.416,246.318 126.416,246.674C126.416,246.987 126.293,247.353 126.048,247.772C125.802,248.191 125.432,248.593 124.937,248.978C124.442,249.363 123.82,249.683 123.071,249.937C122.322,250.19 121.461,250.317 120.487,250.317C118.261,250.317 116.531,249.683 115.295,248.413C114.059,247.144 113.441,245.421 113.441,243.246C113.441,242.222 113.594,241.272 113.898,240.396C114.203,239.52 114.647,238.769 115.231,238.143C115.815,237.516 116.535,237.036 117.39,236.702C118.244,236.367 119.192,236.2 120.233,236.2C121.588,236.2 122.749,236.486 123.718,237.057C124.687,237.628 125.413,238.367 125.896,239.272C126.378,240.178 126.619,241.101 126.619,242.04C126.619,242.912 126.369,243.477 125.87,243.735C125.371,243.993 124.668,244.122 123.763,244.122ZM116.983,242.154L123.268,242.154C123.183,240.969 122.863,240.083 122.309,239.495C121.755,238.906 121.025,238.612 120.119,238.612C119.256,238.612 118.547,238.911 117.993,239.507C117.438,240.104 117.102,240.986 116.983,242.154Z" style="fill:white;fill-rule:nonzero;"/>
        </g>
    </g>
</svg>
