<?xml version="1.0" encoding="UTF-8" standalone="no"?>
<!DOCTYPE svg PUBLIC "-//W3C//DTD SVG 1.1//EN" "http://www.w3.org/Graphics/SVG/1.1/DTD/svg11.dtd">
<svg width="100%" height="100%" viewBox="0 0 512 512" version="1.1" xmlns="http://www.w3.org/2000/svg" xmlns:xlink="http://www.w3.org/1999/xlink" xml:space="preserve" xmlns:serif="http://www.serif.com/" style="fill-rule:evenodd;clip-rule:evenodd;stroke-linejoin:round;stroke-miterlimit:2;">
    <g>
        <path d="M512,128L512,384C512,454.645 454.645,512 384,512L128,512C57.355,512 0,454.645 0,384L0,128C0,57.355 57.355,0 128,0L384,0C454.645,0 512,57.355 512,128Z"/>
        <path d="M512,128L512,384C512,454.645 454.645,512 384,512L128,512C57.355,512 -0,454.645 -0,384L-0,128C-0,57.355 57.355,-0 128,-0L384,-0C454.645,-0 512,57.355 512,128ZM503,128C503,62.322 449.678,9 384,9L128,9C62.322,9 9,62.322 9,128L9,384C9,449.678 62.322,503 128,503L384,503C449.678,503 503,449.678 503,384L503,128Z"/>
        <g transform="matrix(1.74934,0,0,1.74934,49.3259,143.565)">
            <path d="M-0.118,0L22.039,-57.694L30.264,-57.694L53.876,0L45.179,0L38.449,-17.473L14.325,-17.473L7.989,0L-0.118,0ZM16.529,-23.691L36.088,-23.691L30.067,-39.669C28.23,-44.523 26.866,-48.511 25.974,-51.633C25.239,-47.934 24.203,-44.261 22.865,-40.614L16.529,-23.691Z" style="fill:white;"/>
        </g>
        <g transform="matrix(3.18217,0,0,3.18217,171.315,217.275)">
            <path d="M49.193,1.181C46.779,1.181 44.68,-1.915 42.896,-8.107C42.214,-10.468 41.362,-14.601 40.338,-20.504C37.662,-20.136 34.16,-19.48 29.831,-18.536L19.362,-16.371C18.051,-12.935 15.807,-7.91 12.633,-1.299C11.793,0.171 10.652,0.905 9.209,0.905C8.159,0.905 7.222,0.525 6.395,-0.236C5.569,-0.997 5.155,-1.941 5.155,-3.07C5.155,-4.329 7.136,-9.117 11.098,-17.434C10.652,-18.116 10.429,-18.903 10.429,-19.795C10.429,-21.92 11.715,-23.285 14.286,-23.888C17.277,-29.503 21.055,-35.957 25.62,-43.251C31.838,-53.194 35.708,-58.166 37.229,-58.166C39.302,-58.166 40.719,-56.723 41.48,-53.837L43.959,-40.614L49.823,-13.262L52.066,-7.044C52.827,-4.919 53.207,-3.503 53.207,-2.794C53.207,-1.666 52.801,-0.721 51.987,0.039C51.174,0.8 50.243,1.181 49.193,1.181ZM35.301,-43.802L24.046,-25.659C27.22,-26.472 32.035,-27.456 38.489,-28.611L35.301,-43.802Z" style="fill:white;"/>
        </g>
        <g transform="matrix(2.32884,0,0,2.32884,84.9207,308.908)">
            <path d="M31.916,-63.715L41.401,0L24.439,0L23.613,-11.452L17.67,-11.452L16.686,0L-0.472,0L7.95,-63.715L31.916,-63.715ZM23.14,-22.747C22.301,-29.962 21.461,-38.869 20.622,-49.469C18.943,-37.295 17.893,-28.388 17.473,-22.747L23.14,-22.747Z" style="fill:white;"/>
        </g>
        <g transform="matrix(3.22433,0,0,3.22433,301.941,319.564)">
            <path d="M36.875,-17.867L16.214,-17.867L12.593,-9.445C11.701,-7.372 11.255,-5.824 11.255,-4.801C11.255,-3.988 11.642,-3.273 12.416,-2.656C13.19,-2.04 14.863,-1.64 17.434,-1.456L17.434,0L0.63,0L0.63,-1.456C2.86,-1.85 4.303,-2.361 4.959,-2.991C6.297,-4.25 7.779,-6.808 9.406,-10.665L28.178,-54.585L29.555,-54.585L48.131,-10.193C49.626,-6.625 50.984,-4.309 52.204,-3.247C53.424,-2.184 55.123,-1.587 57.3,-1.456L57.3,0L36.245,0L36.245,-1.456C38.371,-1.561 39.807,-1.915 40.555,-2.519C41.303,-3.122 41.676,-3.857 41.676,-4.723C41.676,-5.877 41.152,-7.7 40.102,-10.193L36.875,-17.867ZM35.773,-20.779L26.722,-42.345L17.434,-20.779L35.773,-20.779Z" style="fill:white;"/>
        </g>
        <g transform="matrix(1.1934,0,0,1.1934,17.2365,-98.0707)">
            <g>
                <g transform="matrix(1,0,0,1,94.75,405.447)">
                    <text x="0px" y="0px" style="font-family:'ArialRoundedMTBold', 'Arial Rounded MT Bold', sans-serif;font-size:56.897px;fill:white;">Chang</text>
                </g>
                <g transform="matrix(1,0,0,1,273.553,405.447)">
                    <text x="0px" y="0px" style="font-family:'ArialRoundedMTBold', 'Arial Rounded MT Bold', sans-serif;font-size:56.897px;fill:white;">e</text>
                </g>
            </g>
            <g>
                <g transform="matrix(1,0,0,1,74.442,462.344)">
                    <text x="0px" y="0px" style="font-family:'ArialRoundedMTBold', 'Arial Rounded MT Bold', sans-serif;font-size:56.897px;fill:white;">T</text>
                </g>
                <g transform="matrix(1,0,0,1,107.836,462.344)">
                    <text x="0px" y="0px" style="font-family:'ArialRoundedMTBold', 'Arial Rounded MT Bold', sans-serif;font-size:56.897px;fill:white;">ypef</text>
                </g>
                <g transform="matrix(1,0,0,1,226.241,462.344)">
                    <text x="0px" y="0px" style="font-family:'ArialRoundedMTBold', 'Arial Rounded MT Bold', sans-serif;font-size:56.897px;fill:white;">ace</text>
                </g>
            </g>
        </g>
    </g>
</svg>
